# xmcd
#
# Track frame offsets: 
#        150
#        29752
#        51898
#        73124
#        87648
#        105521
#        118679
#        155259
#        180433
#        198573
#        216798
#        232720
#        249482
#        266979
#        286524
#
# Disc length: 4194 seconds
#
# Revision: 0
# Processed by: cddbd v1.5.2PL0 Copyright (c) Steve Scherf et al.
# Submitted via: ExactAudioCopy v0.99pb4
#
DISCID=d410600f
DTITLE=Texas Slim - Lucky Mojo
DYEAR=2011
DGENRE=Blues
TTITLE0=Coffee Grindin' Mama
TTITLE1=Me and My Woman
TTITLE2=Just Dance
TTITLE3=She's Gonna Leave Me
TTITLE4=Lucky Mojo
TTITLE5=She's Coming Home
TTITLE6=Play It Cool
TTITLE7=Hello Everybody
TTITLE8=Blue Down to the Bone
TTITLE9=In the Ghetto
TTITLE10=Coming Home
TTITLE11=Hoy Hoy
TTITLE12=Sunny Roads Blues
TTITLE13=Drunk In Milano
TTITLE14=T&A Boogie
EXTD=
EXTT0=
EXTT1=
EXTT2=
EXTT3=
EXTT4=
EXTT5=
EXTT6=
EXTT7=
EXTT8=
EXTT9=
EXTT10=
EXTT11=
EXTT12=
EXTT13=
EXTT14=
PLAYORDER=
